<svg height="512" shape-rendering="geometricPrecision" viewBox="0 0 512 512" width="512" xmlns="http://www.w3.org/2000/svg"><path d="m0 0h512v512h-512z" fill="#f2ede8"/><path d="m22 0v10l21 8q32 13 32 51v522q0 40-32 51l-21 8v10h264q106 0 182.5-39.5 76.5-39.5 118-113 41.5-73.5 41.5-176.5 0-105-45-179-45-74-125.5-113-80.5-39-189.5-39zm203 20h43q72 0 116 28.5 44 28.5 64.5 96 20.5 67.5 20.5 185.5 0 118-20.5 185.5-20.5 67.5-63.5 96-43 28.5-113 28.5h-47z" fill="#1d1d1b" transform="matrix(.36864 0 0 -.36864 136.192 377.6512)"/></svg>